<svg width="44" height="44" viewBox="0 0 44 44" fill="none" xmlns="http://www.w3.org/2000/svg">
<g clip-path="url(#clip0_34_262)">
<path d="M19.25 27.5H17.4167C16.9107 27.5 16.5 27.0893 16.5 26.5833C16.5 26.0773 16.9107 25.6667 17.4167 25.6667H19.25C19.756 25.6667 20.1667 26.0773 20.1667 26.5833C20.1667 27.0893 19.756 27.5 19.25 27.5ZM27.5 26.5833C27.5 26.0773 27.0893 25.6667 26.5833 25.6667H24.75C24.244 25.6667 23.8333 26.0773 23.8333 26.5833C23.8333 27.0893 24.244 27.5 24.75 27.5H26.5833C27.0893 27.5 27.5 27.0893 27.5 26.5833ZM20.1667 33.9167C20.1667 33.4107 19.756 33 19.25 33H17.4167C16.9107 33 16.5 33.4107 16.5 33.9167C16.5 34.4227 16.9107 34.8333 17.4167 34.8333H19.25C19.756 34.8333 20.1667 34.4227 20.1667 33.9167ZM27.5 33.9167C27.5 33.4107 27.0893 33 26.5833 33H24.75C24.244 33 23.8333 33.4107 23.8333 33.9167C23.8333 34.4227 24.244 34.8333 24.75 34.8333H26.5833C27.0893 34.8333 27.5 34.4227 27.5 33.9167ZM20.1667 11.9167C20.1667 11.4107 19.756 11 19.25 11H17.4167C16.9107 11 16.5 11.4107 16.5 11.9167C16.5 12.4227 16.9107 12.8333 17.4167 12.8333H19.25C19.756 12.8333 20.1667 12.4227 20.1667 11.9167ZM27.5 11.9167C27.5 11.4107 27.0893 11 26.5833 11H24.75C24.244 11 23.8333 11.4107 23.8333 11.9167C23.8333 12.4227 24.244 12.8333 24.75 12.8333H26.5833C27.0893 12.8333 27.5 12.4227 27.5 11.9167ZM20.1667 19.25C20.1667 18.744 19.756 18.3333 19.25 18.3333H17.4167C16.9107 18.3333 16.5 18.744 16.5 19.25C16.5 19.756 16.9107 20.1667 17.4167 20.1667H19.25C19.756 20.1667 20.1667 19.756 20.1667 19.25ZM27.5 19.25C27.5 18.744 27.0893 18.3333 26.5833 18.3333H24.75C24.244 18.3333 23.8333 18.744 23.8333 19.25C23.8333 19.756 24.244 20.1667 24.75 20.1667H26.5833C27.0893 20.1667 27.5 19.756 27.5 19.25ZM44 35.6437V17.4167C44 12.8682 40.2985 9.16667 35.75 9.16667H34.8333V8.35633C34.8333 3.74917 31.086 0 26.477 0H17.4167C12.8682 0 9.16667 3.7015 9.16667 8.25V16.5H8.25C3.7015 16.5 0 20.2015 0 24.75V35.75C0 40.2985 3.7015 44 8.25 44H35.6437C40.2508 44 44 40.2508 44 35.6437ZM10.0833 18.3333C10.5893 18.3333 11 17.9227 11 17.4167V8.25C11 4.71167 13.8783 1.83333 17.4167 1.83333H26.477C30.074 1.83333 33 4.75933 33 8.35633V10.0833C33 10.5893 33.4107 11 33.9167 11H35.75C39.2883 11 42.1667 13.8783 42.1667 17.4167V35.6437C42.1667 39.2407 39.2407 42.1667 35.6437 42.1667H8.25C4.71167 42.1667 1.83333 39.2883 1.83333 35.75V24.75C1.83333 21.2117 4.71167 18.3333 8.25 18.3333H10.0833ZM36.6667 26.5833C36.6667 26.0773 36.256 25.6667 35.75 25.6667H33.9167C33.4107 25.6667 33 26.0773 33 26.5833C33 27.0893 33.4107 27.5 33.9167 27.5H35.75C36.256 27.5 36.6667 27.0893 36.6667 26.5833ZM36.6667 33.9167C36.6667 33.4107 36.256 33 35.75 33H33.9167C33.4107 33 33 33.4107 33 33.9167C33 34.4227 33.4107 34.8333 33.9167 34.8333H35.75C36.256 34.8333 36.6667 34.4227 36.6667 33.9167ZM11 26.5833C11 26.0773 10.5893 25.6667 10.0833 25.6667H8.25C7.744 25.6667 7.33333 26.0773 7.33333 26.5833C7.33333 27.0893 7.744 27.5 8.25 27.5H10.0833C10.5893 27.5 11 27.0893 11 26.5833ZM11 33.9167C11 33.4107 10.5893 33 10.0833 33H8.25C7.744 33 7.33333 33.4107 7.33333 33.9167C7.33333 34.4227 7.744 34.8333 8.25 34.8333H10.0833C10.5893 34.8333 11 34.4227 11 33.9167ZM36.6667 19.25C36.6667 18.744 36.256 18.3333 35.75 18.3333H33.9167C33.4107 18.3333 33 18.744 33 19.25C33 19.756 33.4107 20.1667 33.9167 20.1667H35.75C36.256 20.1667 36.6667 19.756 36.6667 19.25Z" fill="#6FBB1B"/>
</g>
<defs>
<clipPath id="clip0_34_262">
<rect width="44" height="44" fill="white"/>
</clipPath>
</defs>
</svg>
