<svg width="48" height="48" viewBox="0 0 48 48" fill="none" xmlns="http://www.w3.org/2000/svg">
<path d="M12 0.5H35.66C42.0113 0.5 47.16 5.64873 47.16 12V35.66C47.16 42.0113 42.0113 47.16 35.66 47.16H12C5.64873 47.16 0.5 42.0113 0.5 35.66V12C0.5 5.64873 5.64873 0.5 12 0.5Z" stroke="#CCD2D0"/>
<path d="M26.4709 39.0104V25.7304H30.9009L31.7409 20.2404H26.4709V16.6704C26.4709 15.1704 27.2109 13.7004 29.5709 13.7004H31.9709V9.02039C31.9709 9.02039 29.7909 8.65039 27.7209 8.65039C23.3809 8.65039 20.5409 11.2804 20.5409 16.0404V20.2304H15.7109V25.7204H20.5409V39.0004H26.4809L26.4709 39.0104Z" fill="#5C5E5D"/>
</svg>
