<svg width="44" height="44" viewBox="0 0 44 44" fill="none" xmlns="http://www.w3.org/2000/svg">
<path d="M44 14.6654C44 17.3494 43.0778 20.2809 41.261 23.3792C41.0887 23.6707 40.7825 23.832 40.469 23.832C40.3095 23.832 40.15 23.7917 40.0052 23.7055C39.5688 23.4489 39.4222 22.8879 39.677 22.4515C41.327 19.6374 42.1648 17.0194 42.1648 14.6654C42.1648 8.9087 37.3597 3.66536 32.0815 3.66536C27.7658 3.66536 25.5567 5.36486 23.496 7.25686L15.6292 15.0449C14.5493 16.1247 14.3477 17.7967 15.1653 18.9315C15.6842 19.652 16.4468 20.0865 17.314 20.1562C18.1683 20.2204 19.008 19.9179 19.613 19.3129L27.7713 11.2645C28.1307 10.9089 28.7137 10.9125 29.0675 11.2737C29.4232 11.633 29.4195 12.2142 29.0602 12.5699L26.4275 15.1677L36.1753 23.7239C37.9427 25.273 38.3863 27.8617 37.2075 29.7464C36.4815 30.9087 35.2935 31.6897 33.9533 31.8859C33.5225 31.95 33.088 31.9537 32.6627 31.8932C32.901 33.0225 32.7305 34.2142 32.109 35.2097C31.3812 36.3739 30.1932 37.153 28.853 37.3492C28.2168 37.4427 27.5807 37.4024 26.9793 37.2374C27.0527 38.1797 26.8492 39.133 26.334 39.9525C25.608 41.1149 24.42 41.8959 23.0798 42.092C22.8543 42.125 22.6307 42.1415 22.407 42.1415C21.2942 42.1415 20.2125 41.74 19.3655 40.9957L13.4237 35.6644C4.39083 27.5005 0 20.6329 0 14.6654C0 7.82886 5.56967 1.83203 11.9167 1.83203C14.0433 1.83203 16.1682 2.52136 18.0657 3.8267C18.4837 4.11453 18.5882 4.6847 18.3022 5.10086C18.0162 5.5207 17.446 5.6252 17.028 5.33736C15.4385 4.24286 13.6712 3.66536 11.9185 3.66536C6.64217 3.66536 1.83517 8.9087 1.83517 14.6654C1.83517 20.0095 6.14717 26.6169 14.652 34.3022L20.5828 39.6244C21.1897 40.1579 22.0037 40.3944 22.8158 40.2789C23.6353 40.1597 24.3357 39.6977 24.783 38.9809C25.4907 37.8515 25.1955 36.2712 24.0955 35.3069L17.9795 29.4934C17.6128 29.145 17.5982 28.5657 17.9465 28.199C18.293 27.8305 18.8742 27.8159 19.2408 28.1624L26.3743 34.8962C26.9628 35.4132 27.7787 35.6589 28.589 35.536C29.4085 35.4169 30.1088 34.9549 30.558 34.238C31.2638 33.1105 30.9687 31.5302 29.8687 30.5659L23.0578 24.4004C22.6838 24.0612 22.6527 23.4837 22.99 23.1079C23.3255 22.7302 23.903 22.699 24.2825 23.0345L31.4527 29.4164C32.0632 29.9499 32.8735 30.19 33.6893 30.0727C34.5088 29.9517 35.2073 29.4915 35.6565 28.7747C36.3623 27.6454 36.0672 26.065 34.9672 25.1025L25.1203 16.4584L20.9073 20.6145C19.9247 21.5972 18.5607 22.0904 17.1692 21.9859C15.7777 21.8722 14.5053 21.1517 13.6803 20.004C12.3438 18.1487 12.6262 15.4592 14.3385 13.7469L22.2328 5.9332C24.5025 3.84686 27.1113 1.83386 32.0833 1.83386C38.4322 1.83386 44 7.8307 44 14.6672V14.6654Z" fill="#6FBB1B"/>
</svg>
