<svg width="49" height="48" viewBox="0 0 49 48" fill="none" xmlns="http://www.w3.org/2000/svg">
<path d="M12.6602 0.5H36.3202C42.6714 0.5 47.8202 5.64873 47.8202 12V35.66C47.8202 42.0113 42.6714 47.16 36.3202 47.16H12.6602C6.30888 47.16 1.16016 42.0113 1.16016 35.66V12C1.16016 5.64873 6.30888 0.5 12.6602 0.5Z" stroke="#CCD2D0"/>
<path d="M31.5895 15.2188C30.7195 15.2188 30.0195 15.9188 30.0195 16.7888C30.0195 17.6588 30.7195 18.3588 31.5895 18.3588C32.4595 18.3588 33.1595 17.6588 33.1595 16.7888C33.1595 15.9188 32.4595 15.2188 31.5895 15.2188Z" fill="#5C5E5D"/>
<path d="M24.6 17.2305C20.96 17.2305 18 20.1905 18 23.8305C18 27.4705 20.96 30.4305 24.6 30.4305C28.24 30.4305 31.2 27.4705 31.2 23.8305C31.2 20.1905 28.24 17.2305 24.6 17.2305ZM24.6 28.0605C22.27 28.0605 20.37 26.1605 20.37 23.8305C20.37 21.5005 22.27 19.6005 24.6 19.6005C26.93 19.6005 28.83 21.5005 28.83 23.8305C28.83 26.1605 26.93 28.0605 24.6 28.0605Z" fill="#5C5E5D"/>
<path d="M29.8398 37.2297H19.1398C14.6998 37.2297 11.0898 33.6197 11.0898 29.1797V18.4797C11.0898 14.0397 14.6998 10.4297 19.1398 10.4297H29.8398C34.2798 10.4297 37.8898 14.0397 37.8898 18.4797V29.1797C37.8898 33.6197 34.2798 37.2297 29.8398 37.2297ZM19.1398 12.9497C16.0898 12.9497 13.6098 15.4297 13.6098 18.4797V29.1797C13.6098 32.2297 16.0898 34.7097 19.1398 34.7097H29.8398C32.8898 34.7097 35.3698 32.2297 35.3698 29.1797V18.4797C35.3698 15.4297 32.8898 12.9497 29.8398 12.9497H19.1398Z" fill="#5C5E5D"/>
</svg>
