<svg width="24" height="24" viewBox="0 0 24 24" fill="none" xmlns="http://www.w3.org/2000/svg">
<path d="M18.5 15.5C17.397 15.5 16.5 16.397 16.5 17.5C16.5 18.603 17.397 19.5 18.5 19.5C19.603 19.5 20.5 18.603 20.5 17.5C20.5 16.397 19.603 15.5 18.5 15.5ZM18.5 18.5C17.949 18.5 17.5 18.051 17.5 17.5C17.5 16.949 17.949 16.5 18.5 16.5C19.051 16.5 19.5 16.949 19.5 17.5C19.5 18.051 19.051 18.5 18.5 18.5ZM22.388 13.604C21.349 12.57 19.969 12 18.5 12C17.031 12 15.65 12.569 14.611 13.604C13.572 14.639 13 16.015 13 17.479C13 18.943 13.572 20.318 14.626 21.367L16.597 23.18C17.109 23.678 17.785 23.952 18.5 23.952C19.215 23.952 19.891 23.678 20.392 23.19L22.388 21.353C23.427 20.318 23.999 18.942 23.999 17.478C23.999 16.014 23.427 14.638 22.388 13.603V13.604ZM21.697 20.631L19.705 22.464C19.058 23.095 17.953 23.105 17.284 22.454L15.317 20.644C14.467 19.798 14 18.674 14 17.478C14 16.282 14.468 15.158 15.317 14.312C16.167 13.466 17.297 13 18.5 13C19.703 13 20.833 13.466 21.682 14.312C22.532 15.158 22.999 16.282 22.999 17.478C22.999 18.674 22.531 19.798 21.696 20.63L21.697 20.631ZM13 23.501C13 23.777 12.776 24.001 12.5 24.001H4.5C2.019 24.001 0 21.982 0 19.501V4.5C0 2.019 2.019 0 4.5 0H11.5C13.981 0 16 2.019 16 4.5V10.5C16 10.776 15.776 11 15.5 11C15.224 11 15 10.776 15 10.5V4.5C15 2.57 13.43 1 11.5 1H4.5C2.57 1 1 2.57 1 4.5V19.5C1 21.43 2.57 23 4.5 23H12.5C12.776 23 13 23.225 13 23.501ZM7 13.501C7 13.777 6.776 14.001 6.5 14.001H4.5C4.224 14.001 4 13.777 4 13.501C4 13.225 4.224 13.001 4.5 13.001H6.5C6.776 13.001 7 13.225 7 13.501ZM12 13.501C12 13.777 11.776 14.001 11.5 14.001H9.5C9.224 14.001 9 13.777 9 13.501C9 13.225 9.224 13.001 9.5 13.001H11.5C11.776 13.001 12 13.225 12 13.501ZM7 17.501C7 17.777 6.776 18.001 6.5 18.001H4.5C4.224 18.001 4 17.777 4 17.501C4 17.225 4.224 17.001 4.5 17.001H6.5C6.776 17.001 7 17.225 7 17.501ZM12 17.501C12 17.777 11.776 18.001 11.5 18.001H9.5C9.224 18.001 9 17.777 9 17.501C9 17.225 9.224 17.001 9.5 17.001H11.5C11.776 17.001 12 17.225 12 17.501ZM7 5.5C7 5.776 6.776 6 6.5 6H4.5C4.224 6 4 5.776 4 5.5C4 5.224 4.224 5 4.5 5H6.5C6.776 5 7 5.224 7 5.5ZM12 5.5C12 5.776 11.776 6 11.5 6H9.5C9.224 6 9 5.776 9 5.5C9 5.224 9.224 5 9.5 5H11.5C11.776 5 12 5.224 12 5.5ZM7 9.5C7 9.776 6.776 10 6.5 10H4.5C4.224 10 4 9.776 4 9.5C4 9.224 4.224 9 4.5 9H6.5C6.776 9 7 9.224 7 9.5ZM12 9.5C12 9.776 11.776 10 11.5 10H9.5C9.224 10 9 9.776 9 9.5C9 9.224 9.224 9 9.5 9H11.5C11.776 9 12 9.224 12 9.5Z" fill="#616161"/>
</svg>
