<svg width="24" height="24" viewBox="0 0 24 24" fill="none" xmlns="http://www.w3.org/2000/svg">
<g clip-path="url(#clip0_34_186)">
<path d="M23.5 11C23.224 11 23 10.776 23 10.5C23 5.262 18.738 1 13.5 1C13.224 1 13 0.776 13 0.5C13 0.224 13.224 0 13.5 0C19.29 0 24 4.71 24 10.5C24 10.776 23.776 11 23.5 11ZM20 10.5C20 6.916 17.084 4 13.5 4C13.224 4 13 4.224 13 4.5C13 4.776 13.224 5 13.5 5C16.533 5 19 7.467 19 10.5C19 10.776 19.224 11 19.5 11C19.776 11 20 10.776 20 10.5ZM22.234 22.271L23.212 21.146C23.72 20.638 24 19.962 24 19.244C24 18.526 23.72 17.849 23.163 17.299L20.717 15.426C19.669 14.378 17.964 14.377 16.914 15.423L15.382 16.917C11.702 15.418 8.704 12.417 7.088 8.614L8.576 7.089C9.625 6.04 9.625 4.333 8.619 3.333L6.66 0.79C5.643 -0.227 3.847 -0.203 2.88 0.767L1.706 1.791C0.605 2.886 0 4.373 0 5.976C0 13.725 10.275 24 18.024 24C19.627 24 21.113 23.395 22.234 22.271ZM5.909 1.446L7.868 3.989C8.527 4.648 8.527 5.721 7.864 6.385L6.142 8.151C6.004 8.293 5.962 8.503 6.036 8.687C7.765 12.992 11.149 16.375 15.322 17.967C15.504 18.037 15.71 17.994 15.849 17.859L17.615 16.137C17.615 16.137 17.618 16.134 17.619 16.132C18.258 15.492 19.323 15.451 20.059 16.175L22.505 18.048C23.164 18.707 23.164 19.779 22.482 20.464L21.503 21.589C20.595 22.499 19.359 23 18.024 23C10.864 23 1 13.136 1 5.976C1 4.641 1.501 3.405 2.387 2.52L3.562 1.495C3.898 1.159 4.341 0.995 4.777 0.995C5.196 0.995 5.608 1.147 5.91 1.447L5.909 1.446Z" fill="#616161"/>
</g>
<defs>
<clipPath id="clip0_34_186">
<rect width="24" height="24" fill="white"/>
</clipPath>
</defs>
</svg>
