<svg width="44" height="44" viewBox="0 0 44 44" fill="none" xmlns="http://www.w3.org/2000/svg">
<g clip-path="url(#clip0_34_256)">
<path d="M42.6129 25.348L38.5007 29.4602V33.9152C38.5007 36.4433 36.4455 38.4985 33.9174 38.4985H29.4624L25.3502 42.6107C24.4262 43.5347 23.2144 43.9967 22.0007 43.9967C20.787 43.9967 19.5752 43.5347 18.6512 42.6107L14.539 38.4985H10.084C7.55586 38.4985 5.5007 36.4433 5.5007 33.9152V29.4602L1.38853 25.348C-0.457635 23.5018 -0.457635 20.4952 1.38853 18.649L5.5007 14.5368V10.0818C5.5007 7.55551 7.55586 5.49851 10.084 5.49851H14.539L18.6512 1.38634C20.4387 -0.404823 23.5645 -0.404823 25.3502 1.38634L29.4624 5.49851H33.9174C34.7222 5.49851 35.5142 5.71118 36.209 6.11084C36.6472 6.36384 36.7975 6.92484 36.5445 7.36301C36.2915 7.80484 35.7269 7.95334 35.2924 7.69851C34.8744 7.45834 34.4014 7.33001 33.9174 7.33001H29.0829C28.839 7.33001 28.6062 7.23284 28.4339 7.06234L24.0522 2.68068C22.9559 1.58251 21.04 1.58251 19.9455 2.68068L15.5639 7.06234C15.3915 7.23468 15.1587 7.33001 14.9149 7.33001H10.0804C8.5642 7.33001 7.33036 8.56384 7.33036 10.08V14.9145C7.33036 15.1583 7.2332 15.3912 7.0627 15.5635L2.68103 19.9452C1.54986 21.0782 1.54986 22.9207 2.68103 24.0518L7.0627 28.4335C7.23503 28.6058 7.33036 28.8387 7.33036 29.0825V33.917C7.33036 35.4332 8.5642 36.667 10.0804 36.667H14.9149C15.1587 36.667 15.3915 36.7642 15.5639 36.9347L19.9455 41.3163C21.0419 42.4127 22.9577 42.4127 24.0522 41.3163L28.4339 36.9347C28.6062 36.7623 28.839 36.667 29.0829 36.667H33.9174C35.4335 36.667 36.6674 35.4332 36.6674 33.917V29.0825C36.6674 28.8387 36.7645 28.6058 36.935 28.4335L41.3167 24.0518C42.4479 22.9188 42.4479 21.0763 41.3167 19.9452L39.685 18.3135C39.3275 17.956 39.3275 17.3748 39.685 17.0173C40.0425 16.6598 40.6237 16.6598 40.9812 17.0173L42.6129 18.649C44.459 20.4952 44.459 23.5018 42.6129 25.348ZM19.9455 24.7852L14.396 19.2943C14.0349 18.9387 13.4537 18.9405 13.0999 19.3017C12.7442 19.661 12.7479 20.2422 13.1072 20.5978L18.6567 26.0887C19.6027 27.0255 20.842 27.493 22.0832 27.493C23.3244 27.493 24.571 27.0218 25.517 26.0813L41.8979 9.80684C42.2554 9.45118 42.259 8.87001 41.9015 8.51068C41.5477 8.15318 40.9665 8.14768 40.6054 8.50701L24.2245 24.7815C23.0494 25.9493 21.1299 25.9567 19.9455 24.7852Z" fill="#6FBB1B"/>
</g>
<defs>
<clipPath id="clip0_34_256">
<rect width="44" height="44" fill="white"/>
</clipPath>
</defs>
</svg>
