<svg width="49" height="48" viewBox="0 0 49 48" fill="none" xmlns="http://www.w3.org/2000/svg">
<path d="M12.9805 0.5H36.6405C42.9917 0.5 48.1405 5.64873 48.1405 12V35.66C48.1405 42.0113 42.9917 47.16 36.6405 47.16H12.9805C6.62919 47.16 1.48047 42.0113 1.48047 35.66V12C1.48047 5.64873 6.62919 0.5 12.9805 0.5Z" stroke="#CCD2D0"/>
<path d="M26.8292 22.1607L34.7292 12.9707H32.8592L25.9992 20.9507L20.5192 12.9707H14.1992L22.4892 25.0307L14.1992 34.6607H16.0692L23.3192 26.2407L29.1092 34.6607H35.4292L26.8292 22.1507V22.1607ZM24.2592 25.1407L23.4192 23.9407L16.7392 14.3807H19.6192L25.0092 22.0907L25.8492 23.2907L32.8592 33.3207H29.9792L24.2592 25.1407Z" fill="#5C5E5D"/>
</svg>
