<svg width="26" height="26" viewBox="0 0 26 26" fill="none" xmlns="http://www.w3.org/2000/svg">
<path d="M13 0C5.83158 0 0 5.83158 0 13C0 20.1684 5.83158 26 13 26C20.1684 26 26 20.1684 26 13C26 5.83158 20.1684 0 13 0ZM13 24.9167C6.42958 24.9167 1.08333 19.5704 1.08333 13C1.08333 6.42958 6.42958 1.08333 13 1.08333C19.5704 1.08333 24.9167 6.42958 24.9167 13C24.9167 19.5704 19.5704 24.9167 13 24.9167ZM18.6983 10.9915L19.4643 11.7574L14.1808 17.0408C13.8548 17.3658 13.4268 17.5283 12.9989 17.5283C12.571 17.5283 12.1431 17.3669 11.817 17.0408L6.539 11.7618L7.30492 10.9958L12.5829 16.2749C12.8115 16.5035 13.1863 16.5035 13.4149 16.2749L18.6983 10.9915Z" fill="#616161"/>
</svg>
