<svg width="44" height="44" viewBox="0 0 44 44" fill="none" xmlns="http://www.w3.org/2000/svg">
<g clip-path="url(#clip0_34_250)">
<path d="M19.25 0H4.58333C2.05517 0 0 2.05517 0 4.58333V11.9167C0 14.4448 2.05517 16.5 4.58333 16.5H11V22H6.41667C5.91067 22 5.5 22.4107 5.5 22.9167C5.5 23.4227 5.91067 23.8333 6.41667 23.8333H17.4167C17.9227 23.8333 18.3333 23.4227 18.3333 22.9167C18.3333 22.4107 17.9227 22 17.4167 22H12.8333V16.5H19.25C21.7782 16.5 23.8333 14.4448 23.8333 11.9167V4.58333C23.8333 2.05517 21.7782 0 19.25 0ZM22 11.9167C22 13.4328 20.7662 14.6667 19.25 14.6667H4.58333C3.06717 14.6667 1.83333 13.4328 1.83333 11.9167V4.58333C1.83333 3.06717 3.06717 1.83333 4.58333 1.83333H19.25C20.7662 1.83333 22 3.06717 22 4.58333V11.9167ZM39.4167 20.1667H30.25C27.7218 20.1667 25.6667 22.2218 25.6667 24.75V39.4167C25.6667 41.9448 27.7218 44 30.25 44H39.4167C41.9448 44 44 41.9448 44 39.4167V24.75C44 22.2218 41.9448 20.1667 39.4167 20.1667ZM42.1667 39.4167C42.1667 40.9328 40.9328 42.1667 39.4167 42.1667H30.25C28.7338 42.1667 27.5 40.9328 27.5 39.4167V24.75C27.5 23.2338 28.7338 22 30.25 22H39.4167C40.9328 22 42.1667 23.2338 42.1667 24.75V39.4167ZM27.5 8.25C27.5 7.744 27.9107 7.33333 28.4167 7.33333H32.0833C34.6115 7.33333 36.6667 9.3885 36.6667 11.9167V15.5833C36.6667 16.0893 36.256 16.5 35.75 16.5C35.244 16.5 34.8333 16.0893 34.8333 15.5833V11.9167C34.8333 10.4005 33.5995 9.16667 32.0833 9.16667H28.4167C27.9107 9.16667 27.5 8.756 27.5 8.25ZM22 37.5833C22 38.0893 21.5893 38.5 21.0833 38.5H15.5833C13.0552 38.5 11 36.4448 11 33.9167V28.4167C11 27.9107 11.4107 27.5 11.9167 27.5C12.4227 27.5 12.8333 27.9107 12.8333 28.4167V33.9167C12.8333 35.4328 14.0672 36.6667 15.5833 36.6667H21.0833C21.5893 36.6667 22 37.0773 22 37.5833ZM36.6667 38.5C36.6667 39.512 35.8453 40.3333 34.8333 40.3333C33.8213 40.3333 33 39.512 33 38.5C33 37.488 33.8213 36.6667 34.8333 36.6667C35.8453 36.6667 36.6667 37.488 36.6667 38.5Z" fill="#6FBB1B"/>
</g>
<defs>
<clipPath id="clip0_34_250">
<rect width="44" height="44" fill="white"/>
</clipPath>
</defs>
</svg>
