<svg width="48" height="48" viewBox="0 0 48 48" fill="none" xmlns="http://www.w3.org/2000/svg">
<path d="M12.3203 0.5H35.9803C42.3316 0.5 47.4803 5.64873 47.4803 12V35.66C47.4803 42.0113 42.3316 47.16 35.9803 47.16H12.3203C5.96904 47.16 0.820312 42.0113 0.820312 35.66V12C0.820312 5.64873 5.96904 0.5 12.3203 0.5Z" stroke="#CCD2D0"/>
<path d="M11.8789 36.0609L13.6389 29.4809C12.6389 27.6809 12.1189 25.6609 12.1189 23.6109C12.1189 16.9109 17.5689 11.4609 24.2689 11.4609C30.9689 11.4609 36.4189 16.9109 36.4189 23.6109C36.4189 30.3109 30.9689 35.7609 24.2689 35.7609C22.2589 35.7609 20.2689 35.2509 18.4889 34.2909L11.8789 36.0609ZM18.8189 31.8209L19.2389 32.0709C20.7689 32.9809 22.5089 33.4609 24.2689 33.4609C29.6989 33.4609 34.1189 29.0409 34.1189 23.6109C34.1189 18.1809 29.6989 13.7609 24.2689 13.7609C18.8389 13.7609 14.4189 18.1809 14.4189 23.6109C14.4189 25.4009 14.9189 27.1709 15.8589 28.7209L16.1189 29.1409L15.1389 32.8109L18.8289 31.8209H18.8189Z" fill="#5C5E5D"/>
<path fill-rule="evenodd" clip-rule="evenodd" d="M28.7886 25.3018C28.2886 25.0018 27.6386 24.6718 27.0486 24.9118C26.5986 25.1018 26.3086 25.8018 26.0186 26.1618C25.8686 26.3518 25.6886 26.3718 25.4586 26.2818C23.7586 25.6018 22.4586 24.4718 21.5286 22.9118C21.3686 22.6718 21.3986 22.4818 21.5886 22.2518C21.8686 21.9218 22.2286 21.5418 22.2986 21.0918C22.3786 20.6418 22.1686 20.1218 21.9786 19.7218C21.7386 19.2118 21.4786 18.4818 20.9686 18.1918C20.4986 17.9218 19.8786 18.0718 19.4586 18.4118C18.7386 19.0018 18.3886 19.9218 18.3986 20.8418C18.3986 21.1018 18.4286 21.3618 18.4986 21.6118C18.6486 22.2118 18.9186 22.7818 19.2386 23.3118C19.4786 23.7118 19.7286 24.1118 20.0086 24.4818C20.9186 25.7118 22.0486 26.7818 23.3486 27.5918C23.9986 27.9918 24.7086 28.3418 25.4386 28.5818C26.2586 28.8518 26.9886 29.1318 27.8686 28.9618C28.7886 28.7818 29.6986 28.2118 30.0686 27.3218C30.1786 27.0618 30.2286 26.7618 30.1686 26.4818C30.0386 25.9018 29.2686 25.5618 28.7986 25.2818L28.7886 25.3018Z" fill="#5C5E5D"/>
</svg>
